<?xml version="1.0" encoding="utf-8"?>
<!-- Generator: Adobe Illustrator 17.0.0, SVG Export Plug-In . SVG Version: 6.00 Build 0)  -->
<!DOCTYPE svg PUBLIC "-//W3C//DTD SVG 1.1//EN" "http://www.w3.org/Graphics/SVG/1.1/DTD/svg11.dtd">
<svg version="1.1" id="Layer_1" xmlns="http://www.w3.org/2000/svg" xmlns:xlink="http://www.w3.org/1999/xlink" x="0px" y="0px"
	 width="240px" height="240px" viewBox="0 0 240 240" enable-background="new 0 0 240 240" xml:space="preserve">
<g>
	<g>
		<path fill="#C5C7C9" d="M33.258,169.78h-0.363c-1.362,0-2.179-0.817-2.179-2.088v-4.085c0-1.271,0.908-2.088,2.179-2.088h0.363
			c1.362,0,2.269,0.817,2.269,2.088v4.085C35.436,168.963,34.619,169.78,33.258,169.78z M34.619,163.608
			c0-0.726-0.635-1.362-1.362-1.362h-0.363c-0.726,0-1.362,0.545-1.362,1.362v4.085c0,0.726,0.635,1.362,1.362,1.362h0.363
			c0.726,0,1.362-0.635,1.362-1.362V163.608z"/>
	</g>
	<g>
		<path fill="#C5C7C9" d="M226.329,167.511c-0.726,0-1.362-0.635-1.362-1.362c0-58.275-47.383-105.567-105.567-105.567
			S13.833,107.965,13.833,166.149c0,0.726-0.635,1.362-1.362,1.362c-0.726,0-1.362-0.635-1.362-1.362
			c0-59.728,48.563-108.29,108.29-108.29s108.29,48.563,108.29,108.29C227.69,166.966,227.055,167.511,226.329,167.511z"/>
	</g>
	<g>
		<rect x="12.38" y="164.788" fill="#FFFFFF" width="11.891" height="2.723"/>
	</g>
	<g>
		<rect x="214.438" y="164.788" fill="#FFFFFF" width="11.891" height="2.723"/>
	</g>
	<g>
		<path fill="#F0525A" d="M195.839,169.47h-3.695c-0.087,0-0.124-0.038-0.124-0.127v-0.469c0-0.089,0.036-0.127,0.124-0.127h1.307
			c0.087,0,0.125-0.038,0.125-0.127v-5.364c0-0.089-0.037-0.139-0.099-0.139c-0.037,0-0.075,0.012-0.112,0.051l-0.822,0.837
			c-0.036,0.038-0.062,0.051-0.087,0.051c-0.024,0-0.062-0.012-0.087-0.051l-0.311-0.355c-0.024-0.038-0.036-0.064-0.036-0.089
			c0-0.026,0.012-0.063,0.036-0.089l1.903-1.94l0.087-0.038h0.237c0.087,0,0.125,0.038,0.125,0.127v7
			c0,0.089,0.036,0.127,0.124,0.127h1.307c0.087,0,0.125,0.051,0.125,0.127v0.469C195.964,169.432,195.926,169.47,195.839,169.47z"
			/>
		<path fill="#F0525A" d="M199.473,169.597h-0.385c-1.319,0-2.165-0.837-2.165-2.08v-4.084c0-1.242,0.846-2.08,2.165-2.08h0.385
			c1.319,0,2.177,0.85,2.177,2.08v4.084C201.65,168.76,200.792,169.597,199.473,169.597z M200.804,163.434
			c0-0.748-0.585-1.344-1.331-1.344h-0.385c-0.747,0-1.319,0.583-1.319,1.344v4.084c0,0.761,0.585,1.357,1.319,1.357h0.385
			c0.722,0,1.331-0.609,1.331-1.357V163.434z"/>
		<path fill="#F0525A" d="M205.821,169.597h-0.386c-1.318,0-2.164-0.837-2.164-2.08v-4.084c0-1.242,0.846-2.08,2.164-2.08h0.386
			c1.319,0,2.177,0.85,2.177,2.08v4.084C207.998,168.76,207.14,169.597,205.821,169.597z M207.153,163.434
			c0-0.748-0.585-1.344-1.331-1.344h-0.386c-0.746,0-1.318,0.583-1.318,1.344v4.084c0,0.761,0.585,1.357,1.318,1.357h0.386
			c0.722,0,1.331-0.609,1.331-1.357V163.434z"/>
	</g>
</g>
</svg>
