<svg version="1.1" id="Layer_1" xmlns="http://www.w3.org/2000/svg" xmlns:xlink="http://www.w3.org/1999/xlink" x="0px" y="0px"
	 viewBox="289.4 228.6 264.4 134.8" enable-background="new 289.4 228.6 264.4 134.8" xml:space="preserve">
<g>
	<circle fill="#C5C7C9" cx="421.5" cy="359.4" r="3.4"/>
	<g>
		<path fill="#C5C7C9" d="M326.7,363.4h-0.4c-1.5,0-2.4-0.9-2.4-2.3v-4.5c0-1.4,1-2.3,2.4-2.3h0.4c1.5,0,2.5,0.9,2.5,2.3v4.5
			C329.1,362.5,328.2,363.4,326.7,363.4z M328.2,356.6c0-0.8-0.7-1.5-1.5-1.5h-0.4c-0.8,0-1.5,0.6-1.5,1.5v4.5
			c0,0.8,0.7,1.5,1.5,1.5h0.4c0.8,0,1.5-0.7,1.5-1.5V356.6z"/>
	</g>
	<g>
		<path fill="#F0525A" d="M506,363.3h-4.2c-0.1,0-0.1,0-0.1-0.1v-0.5c0-0.1,0-0.1,0.1-0.1h1.5c0.1,0,0.1,0,0.1-0.1v-5.9
			c0-0.1,0-0.2-0.1-0.2c0,0-0.1,0-0.1,0.1l-0.9,0.9c0,0-0.1,0.1-0.1,0.1s-0.1,0-0.1-0.1l-0.4-0.4c0,0,0-0.1,0-0.1c0,0,0-0.1,0-0.1
			l2.1-2.1l0.1,0h0.3c0.1,0,0.1,0,0.1,0.1v7.7c0,0.1,0,0.1,0.1,0.1h1.5c0.1,0,0.1,0.1,0.1,0.1v0.5
			C506.1,363.3,506.1,363.3,506,363.3z"/>
		<path fill="#F0525A" d="M512.5,361.2h-1c-0.1,0-0.1,0-0.1,0.1v1.8c0,0.1,0,0.1-0.1,0.1h-0.7c-0.1,0-0.1,0-0.1-0.1v-1.8
			c0-0.1-0.1-0.1-0.1-0.1h-3.7c-0.1,0-0.1,0-0.1-0.1l0-0.8l3.8-5.7l0.1-0.1h0.8c0.1,0,0.1,0,0.1,0.1v5.6c0,0.1,0,0.1,0.1,0.1h1
			c0.1,0,0.1,0,0.1,0.1v0.5C512.6,361.1,512.6,361.2,512.5,361.2z M510.3,356.1c0-0.1-0.1-0.2-0.1-0.2c0,0-0.1,0-0.1,0.1l-2.7,4.1
			c0,0,0,0.1,0,0.1c0,0.1,0.1,0.1,0.2,0.1h2.7c0.1,0,0.1,0,0.1-0.1V356.1z"/>
		<path fill="#F0525A" d="M516.7,363.4h-0.4c-1.5,0-2.4-0.9-2.4-2.3v-4.5c0-1.4,1-2.3,2.4-2.3h0.4c1.5,0,2.5,0.9,2.5,2.3v4.5
			C519.2,362.5,518.2,363.4,516.7,363.4z M518.2,356.6c0-0.8-0.7-1.5-1.5-1.5h-0.4c-0.8,0-1.5,0.6-1.5,1.5v4.5
			c0,0.8,0.7,1.5,1.5,1.5h0.4c0.8,0,1.5-0.7,1.5-1.5V356.6z"/>
	</g>
	<g>
		<path fill="#F0525A" d="M495.2,318.2h-4.2c-0.1,0-0.1,0-0.1-0.1v-0.5c0-0.1,0-0.1,0.1-0.1h1.5c0.1,0,0.1,0,0.1-0.1v-5.9
			c0-0.1,0-0.2-0.1-0.2c0,0-0.1,0-0.1,0.1l-0.9,0.9c0,0-0.1,0.1-0.1,0.1s-0.1,0-0.1-0.1l-0.4-0.4c0,0,0-0.1,0-0.1c0,0,0-0.1,0-0.1
			l2.1-2.1l0.1,0h0.3c0.1,0,0.1,0,0.1,0.1v7.7c0,0.1,0,0.1,0.1,0.1h1.5c0.1,0,0.1,0.1,0.1,0.1v0.5
			C495.4,318.2,495.3,318.2,495.2,318.2z"/>
		<path fill="#F0525A" d="M501.2,311.6c0,0.8-0.4,1.6-1,2.1c-0.5,0.4-1.1,0.7-1.7,1.1c-0.9,0.6-1.4,1.1-1.4,2v0.6
			c0,0.1,0,0.1,0.1,0.1h3.6c0.1,0,0.1,0.1,0.1,0.1v0.5c0,0.1,0,0.1-0.1,0.1h-4.6c-0.1,0-0.1,0-0.1-0.1v-1.4c0-1.4,0.7-2.2,2.1-3
			c1.2-0.8,2-1.2,2-2.1c0-0.8-0.7-1.5-1.5-1.5h-0.6c-0.6,0-0.9,0.3-1.3,0.8c0,0-0.1,0.1-0.1,0.1c0,0,0,0-0.1,0l-0.6-0.3
			c-0.1,0-0.1-0.1-0.1-0.1c0-0.5,0.9-1.2,2.1-1.2h0.6C500.3,309.3,501.2,310.2,501.2,311.6z"/>
		<path fill="#F0525A" d="M505.6,318.4h-0.4c-1.5,0-2.4-0.9-2.4-2.3v-4.5c0-1.4,1-2.3,2.4-2.3h0.4c1.5,0,2.5,0.9,2.5,2.3v4.5
			C508.1,317.5,507.1,318.4,505.6,318.4z M507.1,311.6c0-0.8-0.7-1.5-1.5-1.5h-0.4c-0.8,0-1.5,0.6-1.5,1.5v4.5
			c0,0.8,0.7,1.5,1.5,1.5h0.4c0.8,0,1.5-0.7,1.5-1.5V311.6z"/>
	</g>
	<g>
		<path fill="#C5C7C9" d="M468.9,293.3h-4.2c-0.1,0-0.1,0-0.1-0.1v-0.5c0-0.1,0-0.1,0.1-0.1h1.5c0.1,0,0.1,0,0.1-0.1v-5.9
			c0-0.1,0-0.2-0.1-0.2c0,0-0.1,0-0.1,0.1l-0.9,0.9c0,0-0.1,0.1-0.1,0.1s-0.1,0-0.1-0.1l-0.3-0.4c0,0,0-0.1,0-0.1c0,0,0-0.1,0-0.1
			l2.1-2.1l0.1,0h0.3c0.1,0,0.1,0,0.1,0.1v7.7c0,0.1,0,0.1,0.1,0.1h1.5c0.1,0,0.1,0.1,0.1,0.1v0.5C469,293.2,469,293.3,468.9,293.3z
			"/>
		<path fill="#C5C7C9" d="M473,293.4h-0.4c-1.5,0-2.4-0.9-2.4-2.3v-4.5c0-1.4,1-2.3,2.4-2.3h0.4c1.5,0,2.5,0.9,2.5,2.3v4.5
			C475.4,292.5,474.4,293.4,473,293.4z M474.5,286.6c0-0.8-0.7-1.5-1.5-1.5h-0.4c-0.8,0-1.5,0.6-1.5,1.5v4.5c0,0.8,0.7,1.5,1.5,1.5
			h0.4c0.8,0,1.5-0.7,1.5-1.5V286.6z"/>
		<path fill="#C5C7C9" d="M480.1,293.4h-0.4c-1.5,0-2.4-0.9-2.4-2.3v-4.5c0-1.4,1-2.3,2.4-2.3h0.4c1.5,0,2.5,0.9,2.5,2.3v4.5
			C482.6,292.5,481.6,293.4,480.1,293.4z M481.6,286.6c0-0.8-0.7-1.5-1.5-1.5h-0.4c-0.8,0-1.5,0.6-1.5,1.5v4.5
			c0,0.8,0.7,1.5,1.5,1.5h0.4c0.8,0,1.5-0.7,1.5-1.5V286.6z"/>
	</g>
	<g>
		<path fill="#C5C7C9" d="M439.1,276.3h-0.4c-1.5,0-2.4-0.9-2.4-2.3v-0.1l0-0.4c0-0.8,0.5-1.4,1.4-1.8v-0.1c-0.9-0.4-1.4-1-1.4-1.7
			v-0.3c0-1.5,0.9-2.4,2.4-2.4h0.4c1.5,0,2.5,1,2.5,2.4v0.3c0,0.7-0.5,1.3-1.3,1.7v0.1c0.8,0.4,1.3,1.1,1.3,1.8v0.4
			C441.5,275.3,440.6,276.3,439.1,276.3z M440.6,269.5c0-0.8-0.7-1.5-1.5-1.5h-0.4c-0.8,0-1.5,0.6-1.5,1.5v0.3
			c0,0.9,0.6,1.5,1.5,1.5h0.4c0.8,0,1.5-0.7,1.5-1.5V269.5z M440.6,273.5c0-0.8-0.7-1.5-1.5-1.5h-0.4c-0.8,0-1.5,0.6-1.5,1.5v0.4
			c0,0.8,0.7,1.5,1.5,1.5h0.4c0.8,0,1.5-0.7,1.5-1.5V273.5z"/>
		<path fill="#C5C7C9" d="M446.2,276.3h-0.4c-1.5,0-2.4-0.9-2.4-2.3v-4.5c0-1.4,1-2.3,2.4-2.3h0.4c1.5,0,2.5,0.9,2.5,2.3v4.5
			C448.7,275.3,447.7,276.3,446.2,276.3z M447.7,269.5c0-0.8-0.7-1.5-1.5-1.5h-0.4c-0.8,0-1.5,0.6-1.5,1.5v4.5
			c0,0.8,0.7,1.5,1.5,1.5h0.4c0.8,0,1.5-0.7,1.5-1.5V269.5z"/>
	</g>
	<g>
		<path fill="#C5C7C9" d="M398.1,276.3h-0.4c-1.5,0-2.4-0.9-2.4-2.3v-4.5c0-1.4,1-2.3,2.4-2.3h0.4c1.3,0,2.2,0.8,2.2,1.2
			c0,0,0,0.1-0.1,0.1l-0.6,0.3c0,0,0,0-0.1,0c0,0-0.1,0-0.1-0.1c-0.4-0.4-0.6-0.8-1.3-0.8h-0.4c-0.8,0-1.5,0.6-1.5,1.5v2.3
			c0,0.1,0.1,0.2,0.1,0.2c0.1,0,0.2-0.1,0.4-0.3c0.3-0.3,0.6-0.5,1.1-0.5h0.4c1.3,0,2.3,1,2.3,2.3v0.6
			C400.6,275.3,399.6,276.3,398.1,276.3z M399.6,273.4c0-0.8-0.7-1.5-1.5-1.5h-0.4c-0.8,0-1.5,0.6-1.5,1.5v0.6
			c0,0.8,0.7,1.5,1.5,1.5h0.4c0.8,0,1.5-0.7,1.5-1.5V273.4z"/>
		<path fill="#C5C7C9" d="M405.1,276.3h-0.4c-1.5,0-2.4-0.9-2.4-2.3v-4.5c0-1.4,1-2.3,2.4-2.3h0.4c1.5,0,2.5,0.9,2.5,2.3v4.5
			C407.5,275.3,406.5,276.3,405.1,276.3z M406.6,269.5c0-0.8-0.7-1.5-1.5-1.5h-0.4c-0.8,0-1.5,0.6-1.5,1.5v4.5
			c0,0.8,0.7,1.5,1.5,1.5h0.4c0.8,0,1.5-0.7,1.5-1.5V269.5z"/>
	</g>
	<g>
		<path fill="#C5C7C9" d="M363.4,291.2h-1c-0.1,0-0.1,0-0.1,0.1v1.8c0,0.1,0,0.1-0.1,0.1h-0.7c-0.1,0-0.1,0-0.1-0.1v-1.8
			c0-0.1-0.1-0.1-0.1-0.1h-3.7c-0.1,0-0.1,0-0.1-0.1l0-0.8l3.8-5.7l0.1-0.1h0.8c0.1,0,0.1,0,0.1,0.1v5.6c0,0.1,0,0.1,0.1,0.1h1
			c0.1,0,0.1,0,0.1,0.1v0.5C363.5,291.1,363.5,291.2,363.4,291.2z M361.3,286.1c0-0.1-0.1-0.2-0.1-0.2c0,0-0.1,0-0.1,0.1l-2.7,4.1
			c0,0,0,0.1,0,0.1c0,0.1,0.1,0.1,0.2,0.1h2.7c0.1,0,0.1,0,0.1-0.1V286.1z"/>
		<path fill="#C5C7C9" d="M367.7,293.4h-0.4c-1.5,0-2.4-0.9-2.4-2.3v-4.5c0-1.4,1-2.3,2.4-2.3h0.4c1.5,0,2.5,0.9,2.5,2.3v4.5
			C370.2,292.5,369.2,293.4,367.7,293.4z M369.2,286.6c0-0.8-0.7-1.5-1.5-1.5h-0.4c-0.8,0-1.5,0.6-1.5,1.5v4.5
			c0,0.8,0.7,1.5,1.5,1.5h0.4c0.8,0,1.5-0.7,1.5-1.5V286.6z"/>
	</g>
	<g>
		<path fill="#C5C7C9" d="M340.7,311.6c0,0.8-0.4,1.6-1,2.1c-0.5,0.4-1.1,0.7-1.7,1.1c-0.9,0.6-1.4,1.1-1.4,2v0.6
			c0,0.1,0,0.1,0.1,0.1h3.6c0.1,0,0.1,0.1,0.1,0.1v0.5c0,0.1,0,0.1-0.1,0.1h-4.6c-0.1,0-0.1,0-0.1-0.1v-1.4c0-1.4,0.7-2.2,2.1-3
			c1.2-0.8,2-1.2,2-2.1c0-0.8-0.7-1.5-1.5-1.5h-0.6c-0.6,0-0.9,0.4-1.3,0.8c0,0-0.1,0.1-0.1,0.1c0,0,0,0-0.1,0l-0.6-0.3
			c-0.1,0-0.1-0.1-0.1-0.1c0-0.5,0.9-1.2,2.1-1.2h0.6C339.8,309.3,340.7,310.2,340.7,311.6z"/>
		<path fill="#C5C7C9" d="M345.1,318.4h-0.4c-1.5,0-2.4-0.9-2.4-2.3v-4.5c0-1.4,1-2.3,2.4-2.3h0.4c1.5,0,2.5,0.9,2.5,2.3v4.5
			C347.6,317.5,346.6,318.4,345.1,318.4z M346.6,311.6c0-0.8-0.7-1.5-1.5-1.5h-0.4c-0.8,0-1.5,0.6-1.5,1.5v4.5
			c0,0.8,0.7,1.5,1.5,1.5h0.4c0.8,0,1.5-0.7,1.5-1.5V311.6z"/>
	</g>
	<g>
		<path fill="#C5C7C9" d="M539.4,360.9c-0.8,0-1.5-0.7-1.5-1.5c0-64.2-52.2-116.3-116.3-116.3s-116.3,52.2-116.3,116.3
			c0,0.8-0.7,1.5-1.5,1.5s-1.5-0.7-1.5-1.5c0-65.8,53.5-119.3,119.3-119.3s119.3,53.5,119.3,119.3
			C540.9,360.3,540.2,360.9,539.4,360.9z"/>
	</g>
	<g>
		<rect x="303.7" y="357.9" fill="#FFFFFF" width="13.1" height="3"/>
	</g>
	<g>
		<rect x="526.3" y="357.9" fill="#FFFFFF" width="13.1" height="3"/>
	</g>
	<g>
		
			<rect x="314.8" y="309.6" transform="matrix(0.9008 0.4342 -0.4342 0.9008 166.9733 -108.6592)" fill="#C5C7C9" width="13.1" height="3"/>
	</g>
	<g>
		
			<rect x="345.7" y="270.9" transform="matrix(0.6232 0.782 -0.782 0.6232 345.7184 -172.7953)" fill="#C5C7C9" width="13.1" height="3"/>
	</g>
	<g>
		
			<rect x="390.3" y="249.4" transform="matrix(0.2222 0.975 -0.975 0.2222 553.3054 -191.7259)" fill="#C5C7C9" width="13.1" height="3"/>
	</g>
	<g>
		
			<rect x="444.8" y="244.4" transform="matrix(0.9749 0.2227 -0.2227 0.9749 67.1014 -93.1063)" fill="#C5C7C9" width="3" height="13.1"/>
	</g>
	<g>
		
			<rect x="489.5" y="265.9" transform="matrix(0.7818 0.6236 -0.6236 0.7818 277.0389 -246.6962)" fill="#C5C7C9" width="3" height="13.1"/>
	</g>
	<g>
		
			<rect x="520.3" y="304.6" transform="matrix(0.4336 0.9011 -0.9011 0.4336 575.9462 -293.9849)" fill="#C5C7C9" width="3" height="13.1"/>
	</g>
	<g>
		<rect x="303.7" y="357.9" fill="#C5C7C9" width="13.1" height="3"/>
	</g>
	<g>
		<rect x="526.3" y="357.9" fill="#C5C7C9" width="13.1" height="3"/>
	</g>
	<g>
		
			<rect x="470" y="252.9" transform="matrix(0.9006 0.4347 -0.4347 0.9006 158.504 -179.1712)" fill="#C5C7C9" width="2" height="8.1"/>
	</g>
	<g>
		
			<rect x="509.5" y="284.5" transform="matrix(0.623 0.7822 -0.7822 0.623 418.1504 -290.5769)" fill="#C5C7C9" width="2" height="8.1"/>
	</g>
	<g>
		
			<rect x="531.5" y="330.1" transform="matrix(0.2227 0.9749 -0.9749 0.2227 739.6648 -259.3848)" fill="#C5C7C9" width="2" height="8.1"/>
	</g>
	<g>
		
			<rect x="306.6" y="333.1" transform="matrix(0.9749 0.2228 -0.2228 0.9749 82.2316 -60.7987)" fill="#C5C7C9" width="8.1" height="2"/>
	</g>
	<g>
		
			<rect x="328.5" y="287.5" transform="matrix(0.7817 0.6236 -0.6236 0.7817 252.5017 -144.4421)" fill="#C5C7C9" width="8.1" height="2"/>
	</g>
	<g>
		
			<rect x="368.1" y="255.9" transform="matrix(0.4338 0.901 -0.901 0.4338 442.2049 -189.8732)" fill="#C5C7C9" width="8.1" height="2"/>
	</g>
	<g>
		<rect x="420.5" y="241.6" fill="#C5C7C9" width="2" height="8.1"/>
	</g>
</g>
</svg>
